PathFileType	4	(X/Y/Z)	/Users/itak/Documents/Research/Walk-IL/dataset/trc/00170_00008.trc
DataRate	CameraRate	NumFrames	NumMarkers	Units	OrigDataRate	OrigDataStartFrame	OrigNumFrames
100.000000	100.000000	4	53	mm	100.000000	0	577
Frame#	Time	RPSI			LPSI			L3			STRN			T10			C7			CLAV			RBAK			LBAK			LSHO			LUPA			LAEL			LAOL			LWTS			LWPS			LFRA			LIFD			LHPS			LHTS			RSHO			RUPA			RAEL			RAOL			RWTS			RWPS			RFRA			RIFD			RHTS			RHPS			RBHD			LFHD			RFHD			LBHD			LHIP			RHIP			RASI			LASI			LKNE			LTHI			LANK			LTIP			LTOE			LMT1			LMT5			LHEE			RKNE			RTHI			RANK			RTIP			RTOE			RMT1			RMT5			RHEE			
		X1	Y1	Z1	X2	Y2	Z2	X3	Y3	Z3	X4	Y4	Z4	X5	Y5	Z5	X6	Y6	Z6	X7	Y7	Z7	X8	Y8	Z8	X9	Y9	Z9	X10	Y10	Z10	X11	Y11	Z11	X12	Y12	Z12	X13	Y13	Z13	X14	Y14	Z14	X15	Y15	Z15	X16	Y16	Z16	X17	Y17	Z17	X18	Y18	Z18	X19	Y19	Z19	X20	Y20	Z20	X21	Y21	Z21	X22	Y22	Z22	X23	Y23	Z23	X24	Y24	Z24	X25	Y25	Z25	X26	Y26	Z26	X27	Y27	Z27	X28	Y28	Z28	X29	Y29	Z29	X30	Y30	Z30	X31	Y31	Z31	X32	Y32	Z32	X33	Y33	Z33	X34	Y34	Z34	X35	Y35	Z35	X36	Y36	Z36	X37	Y37	Z37	X38	Y38	Z38	X39	Y39	Z39	X40	Y40	Z40	X41	Y41	Z41	X42	Y42	Z42	X43	Y43	Z43	X44	Y44	Z44	X45	Y45	Z45	X46	Y46	Z46	X47	Y47	Z47	X48	Y48	Z48	X49	Y49	Z49	X50	Y50	Z50	X51	Y51	Z51	X52	Y52	Z52	X53	Y53	Z53	

1	0	796.1658935546875	1052.944458007812	254.2761688232422	799.755859375	1047.283569335938	129.0159759521484	796.6033935546875	1088.437377929688	193.5772705078125	1052.0576171875	1298.564819335938	182.7531433105469	760.6124877929688	1246.715454101562	183.6819458007812	825.0597534179688	1517.533813476562	166.8866882324219	1023.124572753906	1411.876342773438	171.9041595458984	756.7734375	1343.346923828125	279.2810363769531	816.1524658203125	1491.476806640625	67.71861267089844	891.1255493164062	1477.5439453125	-11.02319431304932	854.7095336914062	1345.408203125	-82.49104309082031	869.2667236328125	1130.727416992188	-108.2662658691406	837.7235107421875	1108.90283203125	-28.92867469787598	1006.886291503906	914.5042114257812	-111.6633377075195	921.0985717773438	882.698974609375	-134.9794311523438	889.9071655273438	1022.470764160156	-129.6754608154297	1049.058227539062	732.7554321289062	-101.0863723754883	951.4710693359375	816.1435546875	-139.1788177490234	1022.204040527344	838.148681640625	-138.0675354003906	887.77392578125	1496.23388671875	348.6443481445312	865.1023559570312	1431.216186523438	417.9963989257812	841.7847290039062	1145.430908203125	476.97021484375	850.173095703125	1133.131958007812	379.7745971679688	986.7621459960938	922.5868530273438	482.8818054199219	909.4843139648438	905.2259521484375	523.0592651367188	865.3740234375	1074.289428710938	500.0647277832031	1007.522644042969	736.6241455078125	463.0850524902344	1015.005310058594	830.9260864257812	496.8843994140625	939.9735717773438	822.6611938476562	525.477783203125	984.5526123046875	1688.624877929688	233.8976593017578	1126.536743164062	1626.640747070312	81.15806579589844	1146.593505859375	1629.107543945312	209.217041015625	961.1945190429688	1696.867065429688	99.44832611083984	899.9413452148438	987.055908203125	8.056306838989258	954.9090576171875	1017.164306640625	375.2774047851562	1035.678955078125	1046.643310546875	318.9305725097656	1026.628540039062	1030.585083007812	61.26773071289062	914.3592529296875	493.9376220703125	40.04402542114258	921.140380859375	636.0056762695312	15.08744525909424	802.0133056640625	41.0900993347168	28.48508834838867	860.3843994140625	273.8796997070312	22.73184204101562	1022.743286132812	37.17839431762695	33.22011184692383	977.1617431640625	38.5329475402832	85.12255859375	905.5592651367188	30.64853668212891	-22.17636871337891	757.384765625	39.83180236816406	102.5971069335938	959.304443359375	518.4907836914062	362.0506896972656	1006.697448730469	789.0155029296875	387.9205932617188	832.0576782226562	38.02278900146484	367.4814147949219	961.0174560546875	394.9131164550781	346.1468811035156	1049.8515625	55.53316497802734	341.6114807128906	999.8472900390625	43.24864196777344	294.5530090332031	943.6543579101562	31.62317085266113	405.5614013671875	781.65185546875	39.63764572143555	298.496337890625	
2	0.01	796.484619140625	1052.6669921875	254.0304718017578	800.0389404296875	1047.21630859375	128.8394470214844	796.77734375	1088.3212890625	193.4739074707031	1052.224975585938	1298.54541015625	182.7266540527344	760.7322387695312	1246.650268554688	183.6723327636719	825.1450805664062	1517.477783203125	166.9611358642578	1023.255187988281	1411.871459960938	171.9018249511719	756.8670043945312	1343.297119140625	279.2295227050781	816.3285522460938	1491.46875	67.78472137451172	891.1932373046875	1477.530639648438	-11.00592803955078	854.7403564453125	1345.383422851562	-82.43645477294922	869.1888427734375	1130.731323242188	-108.1447525024414	837.6102294921875	1108.958740234375	-28.77245140075684	1006.478759765625	914.2774658203125	-111.4654235839844	920.573974609375	882.539794921875	-134.6623840332031	889.615478515625	1022.399658203125	-129.4501953125	1048.343994140625	732.4597778320312	-100.7277450561523	950.8527221679688	815.9595947265625	-138.8569488525391	1021.652954101562	837.845947265625	-137.7699127197266	887.9426879882812	1496.158569335938	348.6856384277344	865.318115234375	1431.129638671875	418.0419616699219	842.345947265625	1145.348022460938	477.1363830566406	850.5679931640625	1133.0107421875	379.9194641113281	987.6802368164062	922.6835327148438	483.0982360839844	910.4133911132812	905.2453002929688	523.2662353515625	865.9844360351562	1074.238159179688	500.2497863769531	1008.643981933594	736.760986328125	463.3190307617188	1015.954772949219	830.8597412109375	497.22119140625	940.9869995117188	822.7108154296875	525.7080078125	984.599365234375	1688.598388671875	234.0545654296875	1126.574462890625	1626.724365234375	81.23105621337891	1146.635375976562	1629.176391601562	209.2469329833984	961.2032470703125	1696.880004882812	99.57972717285156	900.3349609375	987.0460205078125	7.995568752288818	955.0126342773438	1017.154357910156	375.3099975585938	1035.844848632812	1046.739135742188	319.0091857910156	1026.920532226562	1030.580444335938	61.33588409423828	914.547119140625	493.9673767089844	39.97517776489258	921.4264526367188	636.040771484375	15.09058856964111	802.0244750976562	41.08561325073242	28.4771900177002	860.4769897460938	273.8805236816406	22.67254447937012	1022.750305175781	37.16292190551758	33.21427917480469	977.1744995117188	38.53226470947266	85.10502624511719	905.5623168945312	30.62650680541992	-22.18714141845703	757.4163818359375	39.91934204101562	102.5897369384766	959.9837646484375	518.47607421875	362.1216125488281	1006.893249511719	788.7672119140625	388.1328430175781	832.167724609375	38.09885406494141	367.1686096191406	961.6015014648438	394.7473449707031	346.251708984375	1050.118896484375	55.48407363891602	341.8720092773438	1000.123596191406	43.26600646972656	294.6881408691406	943.6329345703125	31.61798477172852	405.5603942871094	781.8858642578125	39.72677230834961	297.9737548828125	
3	0.02	796.8814086914062	1052.304809570312	253.7604675292969	800.377685546875	1047.110595703125	128.6551818847656	797.0117797851562	1088.169921875	193.3598785400391	1052.439575195312	1298.506469726562	182.7044677734375	760.8876953125	1246.556640625	183.6610717773438	825.2592163085938	1517.40185546875	167.0495452880859	1023.413635253906	1411.851684570312	171.8998260498047	757.013916015625	1343.206665039062	279.183349609375	816.55078125	1491.448486328125	67.85915374755859	891.297119140625	1477.495483398438	-10.9843578338623	854.7920532226562	1345.335815429688	-82.37336730957031	869.0714721679688	1130.713134765625	-107.9736480712891	837.474853515625	1109.0078125	-28.55336570739746	1005.930969238281	913.9464111328125	-111.1705474853516	919.888916015625	882.3238525390625	-134.2444458007812	889.2366943359375	1022.281677246094	-129.1464538574219	1047.3935546875	732.031982421875	-100.2206954956055	950.043212890625	815.69482421875	-138.4091949462891	1020.916076660156	837.41845703125	-137.3502807617188	888.148681640625	1496.054443359375	348.7353515625	865.5880126953125	1431.011962890625	418.0984802246094	843.0420532226562	1145.236450195312	477.3543395996094	851.1033325195312	1132.833374023438	380.1251220703125	988.8283081054688	922.80126953125	483.386474609375	911.5814208984375	905.2684326171875	523.5460815429688	866.7669677734375	1074.168090820312	500.4956970214844	1010.0703125	736.9374389648438	463.6473388671875	1017.172973632812	830.8290405273438	497.6430053710938	942.28076171875	822.7811279296875	526.0225830078125	984.66162109375	1688.5537109375	234.2500305175781	1126.638427734375	1626.824340820312	81.33126068115234	1146.689697265625	1629.248046875	209.2950897216797	961.229248046875	1696.886962890625	99.7381591796875	900.8106079101562	987.0418701171875	7.910858154296875	955.1712036132812	1017.11376953125	375.3591613769531	1036.062377929688	1046.826416015625	319.1011962890625	1027.2763671875	1030.563720703125	61.41913986206055	914.8118286132812	494.0030517578125	39.88713455200195	921.7990112304688	636.095703125	15.07266044616699	802.0392456054688	41.08132553100586	28.46477127075195	860.6008911132812	273.8787841796875	22.59455871582031	1022.75732421875	37.14484786987305	33.20825576782227	977.1903076171875	38.53194427490234	85.08700561523438	905.5629272460938	30.60075569152832	-22.20009613037109	757.4515380859375	40.02416610717773	102.579704284668	960.8170166015625	518.4314575195312	362.1734313964844	1007.198181152344	788.5032958984375	388.3225708007812	832.2981567382812	38.19618225097656	366.7760925292969	962.3197631835938	394.5479736328125	346.3292541503906	1050.510864257812	55.25728607177734	342.0784912109375	1000.463012695312	43.2118034362793	294.7752075195312	943.6322631835938	31.63291549682617	405.5437927246094	782.1679077148438	39.82278823852539	297.36669921875	
4	0.03	797.3348999023438	1051.870971679688	253.4989929199219	800.75390625	1046.96142578125	128.4893188476562	797.3042602539062	1087.986572265625	193.2517395019531	1052.693725585938	1298.442626953125	182.6920623779297	761.0756225585938	1246.429931640625	183.6506805419922	825.4013671875	1517.305541992188	167.1456756591797	1023.591613769531	1411.811157226562	171.89892578125	757.21484375	1343.066772460938	279.1510925292969	816.8098754882812	1491.40966796875	67.93642425537109	891.4403686523438	1477.43115234375	-10.95979595184326	854.8682861328125	1345.258422851562	-82.30628967285156	868.9130859375	1130.661010742188	-107.7507934570312	837.3278198242188	1109.034301757812	-28.27109146118164	1005.248474121094	913.5011596679688	-110.7694931030273	919.0606079101562	882.0496826171875	-133.7331390380859	888.78173828125	1022.107727050781	-128.7676544189453	1046.213623046875	731.461181640625	-99.55910491943359	949.058349609375	815.3423461914062	-137.8348693847656	1020.003601074219	836.861083984375	-136.8041229248047	888.3798828125	1495.921264648438	348.7901611328125	865.89794921875	1430.863891601562	418.1629028320312	843.8417358398438	1145.096313476562	477.6194152832031	851.7738647460938	1132.597412109375	380.3957824707031	990.1563110351562	922.9376220703125	483.7397155761719	912.942138671875	905.2942504882812	523.8964233398438	867.693115234375	1074.07958984375	500.7982482910156	1011.756591796875	737.1500854492188	464.0724182128906	1018.622253417969	830.85888671875	498.1334533691406	943.811279296875	822.8731689453125	526.42041015625	984.7392578125	1688.487060546875	234.4746398925781	1126.734375	1626.932739257812	81.45903778076172	1146.755859375	1629.311645507812	209.3660278320312	961.279541015625	1696.881958007812	99.91400909423828	901.3350219726562	987.0446166992188	7.806746482849121	955.3954467773438	1017.030029296875	375.4257507324219	1036.328491210938	1046.880004882812	319.2000732421875	1027.67822265625	1030.53759765625	61.50564575195312	915.1563720703125	494.0423889160156	39.78199768066406	922.2493286132812	636.1712646484375	15.02511692047119	802.0576782226562	41.07745742797852	28.44667053222656	860.75439453125	273.8722534179688	22.49956703186035	1022.763793945312	37.12520217895508	33.20265960693359	977.208251953125	38.53250122070312	85.0703125	905.5601196289062	30.57238388061523	-22.21455955505371	757.4873046875	40.1396369934082	102.5657348632812	961.7615356445312	518.3470458984375	362.18017578125	1007.628173828125	788.2368774414062	388.4537353515625	832.441650390625	38.3146858215332	366.3299865722656	963.1336669921875	394.320068359375	346.3448791503906	1051.0390625	54.78205871582031	342.1641845703125	1000.845520019531	43.04758834838867	294.7696533203125	943.6661987304688	31.6766300201416	405.5048217773438	782.4802856445312	39.91484451293945	296.725830078125	
